<svg height="128" viewBox="0 0 128 128" width="128" xmlns="http://www.w3.org/2000/svg"><path d="m108.999762 119.999981c6.624984 0 11.999971-5.374987 11.999971-11.999971v-87.9997907c0-6.6249842-5.374987-11.99997134-11.999971-11.99997134h-87.9997906c-6.6249842 0-11.9999714 5.37498714-11.9999714 11.99997134v87.9997907c0 6.624984 5.3749872 11.999971 11.9999714 11.999971zm-43.9998955-15.999962c-22.0499963 0-39.9999046-17.9499083-39.9999046-39.9999046 0-22.0499962 17.9499083-39.9999046 39.9999046-39.9999046 22.0499962 0 39.9999045 17.9499084 39.9999045 39.9999046 0 22.0499963-17.9499083 39.9999046-39.9999045 39.9999046zm4.7499887-53.1497756c12.1498733-4.5751844 17.2748611-11.4750702 17.8998596-12.3500682-8.3998823-7.4499334-19.8249039-10.2748778-30.6498292-7.6498841.9499489 1.2748993 7.1498853 9.7248304 12.7499696 19.9999523zm-6.600082 2.0248976c-5.6747911-10.0500249-11.7748742-18.5248582-12.6747744-19.7499529-9.5751725 4.4999892-16.7001555 13.3249194-18.9250037 23.9249917.0953061.0015564.2396358.0032111.430395.004103h.3206367c3.4298334-.0076099 16.348781-.3275885 30.8487464-4.1791418zm36.0250606 10.8500718c-.074951-8.0751761-2.9499441-15.4750608-7.7250792-21.2750958-.7248518.9750953-6.4499358 8.300029-19.0749057 13.4750655 1.1999483 2.4499454 2.0749462 4.4499406 3 6.6999352 11.3749657-1.4250454 22.6749876.8500956 23.7999849 1.1000951zm-59.5748091 23.1747494c5.5497915-9.4748309 16.7748623-19.4748071 29.1249306-22.9498965-.8500957-1.9499465-1.8000446-3.8749907-2.7751399-5.800035-17.0500082 5.1000855-33.5997734 4.9001348-35.0997698 4.8500861l-.0251465 1.0500463c0 8.7748815 3.3249433 16.7748624 8.7751256 22.8497991zm44.4747475 5.4750846c7.6750305-5.1750365 13.1249687-13.3998704 14.6501115-22.8998478-1.1501437-.3749991-10.5751701-3.1750412-21.2750957-1.4501918 4.475087 12.2751172 6.2751315 22.2750934 6.6249842 24.3500396zm-5.7248399 3.1249925c-.4999988-2.9999928-2.499994-13.4499191-7.3000314-25.8998406-13.7751137 4.69994-23.4498953 14.0998199-27.0250821 21.3998514 10.1249759 7.8998835 23.3251397 9.1750269 34.3251135 4.4999892z" fill="#222"/></svg>