<svg height="128" viewBox="0 0 128 128" width="128" xmlns="http://www.w3.org/2000/svg"><path d="m107.999762 119.999981c6.624984 0 11.999971-5.374987 11.999971-11.999971v-87.9997907c0-6.6249842-5.374987-11.99997134-11.999971-11.99997134h-87.9997906c-6.6249842 0-11.9999714 5.37498714-11.9999714 11.99997134v87.9997907c0 6.624984 5.3749872 11.999971 11.9999714 11.999971zm-56.9998645-16.074913c-16.4999607-5.5251332-28.049982-21.225047-28.049982-39.5748567 0-22.9501406 17.550007-40.3749038 40.4999035-40.3749038 22.9498964 0 41.549991 17.4247632 41.549991 40.3749038.024861 18.3498097-11.1750635 34.0748699-27.6750241 39.5748567-2.0998485.374999-2.8749932-.925047-2.8749932-1.999995 0-.056254.0000869-.122143.0002535-.19717l.0007313-.251996c.0050976-1.4848789.0287317-5.1817119.0412438-9.053539l.0041128-1.4561596c.0014482-.6068356.0025343-1.2117273.0031453-1.8069046l.0005621-1.0591492c0-3.9001371-1.3000458-6.3749848-2.8249445-7.6750305l.5555167-.0619239.8344488-.0955272c.185487-.0217249.3709691-.0438387.5563641-.066457l.5558422-.0694842c8.4238272-1.0803049 16.4977829-3.4444064 16.4977829-17.9817106 0-4.5497938-1.6249961-6.8249349-4.2751363-9.7499768.4250478-1.0749486 1.8500933-5.4999868-.4248037-11.2499731-3.0038908-.9291929-9.35138 3.0917963-11.017505 4.1993178l-.1739327.1163808c-.1513668.1019907-.2335838.1593884-.2335838.1593884-3.300041-.9250467-6.8749836-1.3998991-10.4001217-1.3998991-3.524894 0-7.0998366.4748524-10.3998776 1.3998991 0 0-7.9499322-5.5500356-11.4250216-4.475087-2.2748969 5.725084-.8749979 10.1501222-.4250478 11.2499731-2.649896 2.9250419-3.899893 5.200183-3.899893 9.7499768 0 14.4690988 7.7219736 16.8891287 16.082444 17.9800532l.5520899.0701169c.2764323.0342093.5533894.0672301.8306174.0994465l.5547421.0634742c.1849844.0208765.3700139.0415092.5550135.0620121-1.1999484 1.0749486-2.274897 2.9250419-2.6498961 5.5749379-2.3749943 1.0749486-8.449931 2.9250418-12.0749223-3.4750894-2.2751411-3.9499417-6.3749848-4.2748921-6.3749848-4.2748921-4.0500392-.0500487-.2751459 2.5500427-.2751459 2.5500427 2.6999448 1.249997 4.6000867 6.0500344 4.6000867 6.0500344 2.4250431 7.424787 14.0248689 4.924793 14.0248689 4.924793 0 1.0059469.0041938 2.1941312.0101535 3.39962l.0052209.9868246c.0128715 2.2959871.0297654 4.4911018.0337878 5.4377528l.0008865.325925c0 1.074948-.7499982 2.374994-2.8749931 1.999995zm-13.3500658-23.5748949c-.3249504-.1501461-.4748524-.4250478-.3749992-.6501449.1000975-.149902.3749992-.224853.7001937-.0998533.3249504.1748043.4748524.4499501.3749991.6499008-.1000974.2250971-.4250478.2749017-.7001936.1000974zm1.4999964 1.5998497c-.2749017-.3249504-.3249504-.6999495-.0998533-.8749979.224853-.224853.5998521-.0998533.8749979.1501461.2749017.3249504.3249504.6999495.0998533.8749979-.224853.224853-.5998521.0998533-.8749979-.1501461zm1.5751915 2.1999459c-.2751458-.3749991-.2751458-.7998027 0-.9748511.2749017-.2250972.6999495-.0500488.9248025.3249503.2751458.3749992.2751458.8249493 0 1.0248999-.224853.1501462-.6499008 0-.9248025-.3749991zm2.124995 2.4999941c-.3749991-.3249504-.4750966-.7998028-.2250972-1.0248999.2250972-.2749017.6999496-.2250971 1.0749487.149902.3249504.3251945.4499501.8251933.2250971 1.025144-.2250971.2749017-.6999495.224853-1.0749486-.1501461zm3.1249925 1.8251909c-.4750965-.1000974-.8000469-.4750965-.7001936-.8000469.1000974-.3249504.6000962-.4750965 1.025144-.3749991.4999988.149902.8249492.5249011.6999495.8498515-.1000974.3251945-.6000962.4750965-1.0248999.3251945zm5.8498396-.2499994c-.0500487-.3749991.2751458-.7001936.7499982-.8000469.4750965-.0500487.9250466.149902.9750953.4748524.074951.3251945-.2499994.6501449-.7499982.7499982-.4750965.1000974-.9250466-.0998533-.9750953-.4248037zm-3.1999436.1999507c0-.3249504.3749991-.6000962.874998-.6000962.4750965-.0500487.9250466.2250971.9250466.6000962 0 .3249504-.3749991.5998521-.8749979.5998521-.5500476.0500487-.9250467-.224853-.9250467-.5998521z" fill="#222"/></svg>