<svg height="128" viewBox="0 0 128 128" width="128" xmlns="http://www.w3.org/2000/svg"><path d="m108.799809 119.999981c6.175034 0 11.199924-5.02489 11.199924-11.199925v-89.5998836c0-6.1750341-5.02489-11.19992444-11.199924-11.19992444h-89.5998845c-6.1750341 0-11.1999245 5.02489034-11.1999245 11.19992444v89.5998836c0 6.175035 5.0248904 11.199925 11.1999245 11.199925zm-50.9749766-20.99995c-4.7248423 0-8.6999304-4.3500873-11.974825-13.07492-6.3749848-23.3248956-9.1000759-36.9999118-14.3500634-36.9999118-.6000963 0-2.7250912 1.2748993-6.3500825 3.8000398l-3.7997957-4.9001348c.5485253-.4823489 1.0955797-.9678125 1.6405732-1.4544571l.8158707-.730611c8.4131661-7.5538037 16.2602725-15.159057 21.3433041-15.6149383 6.3000338-.5998521 10.1750245 3.7001865 11.6249723 12.925018 5.1750364 32.7999706 7.4750798 37.74991 16.9001061 22.9000919 3.374992-5.3500849 5.1999388-9.4250264 5.4499382-12.2250685.8749979-8.3000291-6.4750822-7.7250793-11.4499238-5.6000843 3.974844-13.0248713 11.5749235-19.3498074 22.7999944-18.9999547 8.3249313.2250971 12.249971 5.6249866 11.774874 16.1750102-.350097 7.8749813-5.8500834 18.6750043-16.4999604 32.3500206-10.9999737 14.3000147-20.3249027 21.4499-27.9249822 21.4499z" fill="#222"/></svg>