<svg height="128" viewBox="0 0 128 128" width="128" xmlns="http://www.w3.org/2000/svg"><path d="m107.999762 119.999981c6.624984 0 11.999971-5.374987 11.999971-11.999971v-87.9997907c0-6.6249842-5.374987-11.99997134-11.999971-11.99997134h-87.9997906c-6.6249842 0-11.9999714 5.37498714-11.9999714 11.99997134v87.9997907c0 6.624984 5.3749872 11.999971 11.9999714 11.999971zm-58.8248113-23.5248463c-9.3000267 0-17.9250061-2.7001889-25.1749888-7.3500802 1.324948.149902 2.6000914.1999507 3.9499417.1999507 7.6750305 0 14.7250626-2.5998473 20.3500491-6.9999833-7.199934-.149902-13.2499684-4.8749884-15.3249146-11.3749729 2.5248963.3749991 4.7997933.3749991 7.3998847-.3000481-7.4999821-1.5248987-13.1249687-8.1249806-13.1249687-16.0998151v-.1999507c2.1750436 1.2248506 4.7250864 1.9748488 7.3998847 2.0749462-4.0295314-2.6804135-7.2997873-8.7836704-7.2997873-13.6232585v-.0268554c0-3.0497974.7998028-5.8498396 2.2248482-8.2748755 8.074932 9.9499203 20.199903 16.4499048 33.7999683 17.1498543-2.3249457-11.1249734 5.9999857-20.1498543 15.9999618-20.1498543 4.7250864 0 8.9750763 1.975093 11.9750691 5.1750365 3.6999424-.6999495 7.2499827-2.0749462 10.3998771-3.9499417-1.225094 3.7997956-3.8000393 6.9999833-7.1999335 9.0248808 3.3000409-.3500968 6.4999845-1.2748993 9.4499285-2.5500428-2.225092 3.2751387-5.0248902 6.1750341-8.2250779 8.4999798.0500487.6999495.0500487 1.4250454.0500487 2.1249949 0 21.6749972-16.4999607 46.6500353-46.6497911 46.6500353z" fill="#222"/></svg>